<mxfile host="app.diagrams.net" modified="2020-12-09T07:46:02.465Z" agent="5.0 (Windows NT 10.0; Win64; x64) AppleWebKit/537.36 (KHTML, like Gecko) Chrome/87.0.4280.88 Safari/537.36" etag="om0Bmj4lYo85OXJFVtbL" version="13.11.0" type="github">
  <diagram id="Sx1BmFZ8a6_3sdtOQEK_" name="第 1 页">
    <mxGraphModel dx="1102" dy="582" grid="1" gridSize="10" guides="1" tooltips="1" connect="1" arrows="1" fold="1" page="1" pageScale="1" pageWidth="827" pageHeight="1169" math="0" shadow="0">
      <root>
        <mxCell id="0" />
        <mxCell id="1" parent="0" />
        <mxCell id="44tpTN38QBaPn0KXmmkY-1" style="edgeStyle=orthogonalEdgeStyle;sketch=0;orthogonalLoop=1;jettySize=auto;html=1;exitX=0.5;exitY=1;exitDx=0;exitDy=0;shadow=0;endArrow=classic;endFill=1;strokeColor=#000000;strokeWidth=1;" edge="1" parent="1" source="44tpTN38QBaPn0KXmmkY-2" target="44tpTN38QBaPn0KXmmkY-4">
          <mxGeometry relative="1" as="geometry" />
        </mxCell>
        <mxCell id="44tpTN38QBaPn0KXmmkY-2" value="在github/gitee设置中录入本机ssh公钥" style="whiteSpace=wrap;html=1;fontSize=12;glass=0;strokeWidth=1;shadow=0;arcSize=18;" vertex="1" parent="1">
          <mxGeometry x="226.5" y="206" width="229" height="50" as="geometry" />
        </mxCell>
        <mxCell id="44tpTN38QBaPn0KXmmkY-3" style="edgeStyle=orthogonalEdgeStyle;sketch=0;orthogonalLoop=1;jettySize=auto;html=1;exitX=0.5;exitY=1;exitDx=0;exitDy=0;entryX=0.5;entryY=0;entryDx=0;entryDy=0;shadow=0;endArrow=classic;endFill=1;strokeColor=#000000;strokeWidth=1;" edge="1" parent="1" source="44tpTN38QBaPn0KXmmkY-4" target="44tpTN38QBaPn0KXmmkY-7">
          <mxGeometry relative="1" as="geometry" />
        </mxCell>
        <mxCell id="44tpTN38QBaPn0KXmmkY-4" value="clone 仓库代码" style="whiteSpace=wrap;html=1;" vertex="1" parent="1">
          <mxGeometry x="281" y="312" width="120" height="40" as="geometry" />
        </mxCell>
        <mxCell id="44tpTN38QBaPn0KXmmkY-5" value="git&amp;nbsp; clone&amp;nbsp; git@gitee.com:dijunliu/slider.git" style="text;html=1;strokeColor=#d79b00;fillColor=#ffe6cc;align=center;verticalAlign=middle;whiteSpace=wrap;" vertex="1" parent="1">
          <mxGeometry x="431" y="322" width="270" height="20" as="geometry" />
        </mxCell>
        <mxCell id="44tpTN38QBaPn0KXmmkY-6" style="edgeStyle=orthogonalEdgeStyle;sketch=0;orthogonalLoop=1;jettySize=auto;html=1;exitX=0.5;exitY=1;exitDx=0;exitDy=0;entryX=0.5;entryY=0;entryDx=0;entryDy=0;shadow=0;endArrow=classic;endFill=1;strokeColor=#000000;strokeWidth=1;" edge="1" parent="1" source="44tpTN38QBaPn0KXmmkY-7" target="44tpTN38QBaPn0KXmmkY-13">
          <mxGeometry relative="1" as="geometry" />
        </mxCell>
        <mxCell id="44tpTN38QBaPn0KXmmkY-7" value="提交修改到本地" style="whiteSpace=wrap;html=1;" vertex="1" parent="1">
          <mxGeometry x="281" y="393" width="120" height="40" as="geometry" />
        </mxCell>
        <mxCell id="44tpTN38QBaPn0KXmmkY-8" value="&amp;nbsp; &amp;nbsp; git add ./&lt;br&gt;&amp;nbsp; &amp;nbsp; git commit -m&#39;first&#39;" style="text;html=1;strokeColor=#d79b00;fillColor=#ffe6cc;align=left;verticalAlign=middle;whiteSpace=wrap;" vertex="1" parent="1">
          <mxGeometry x="431" y="396" width="132" height="40" as="geometry" />
        </mxCell>
        <mxCell id="44tpTN38QBaPn0KXmmkY-9" value="推送到远程库&lt;br&gt;(默认为master/main分支)" style="whiteSpace=wrap;html=1;" vertex="1" parent="1">
          <mxGeometry x="151" y="602" width="150" height="46" as="geometry" />
        </mxCell>
        <mxCell id="44tpTN38QBaPn0KXmmkY-10" value="git push" style="text;html=1;strokeColor=#d79b00;fillColor=#ffe6cc;align=center;verticalAlign=middle;whiteSpace=wrap;" vertex="1" parent="1">
          <mxGeometry x="41" y="612" width="90" height="20" as="geometry" />
        </mxCell>
        <mxCell id="44tpTN38QBaPn0KXmmkY-11" style="edgeStyle=orthogonalEdgeStyle;orthogonalLoop=1;jettySize=auto;html=1;exitX=0.5;exitY=1;exitDx=0;exitDy=0;entryX=0.5;entryY=0;entryDx=0;entryDy=0;shadow=0;endArrow=classic;endFill=1;strokeWidth=1;exitPerimeter=0;" edge="1" parent="1" source="44tpTN38QBaPn0KXmmkY-13" target="44tpTN38QBaPn0KXmmkY-9">
          <mxGeometry relative="1" as="geometry" />
        </mxCell>
        <mxCell id="44tpTN38QBaPn0KXmmkY-12" style="orthogonalLoop=1;jettySize=auto;html=1;exitX=0.5;exitY=1;exitDx=0;exitDy=0;entryX=0.5;entryY=0;entryDx=0;entryDy=0;shadow=0;endArrow=classic;endFill=1;strokeColor=#000000;strokeWidth=1;sketch=0;edgeStyle=orthogonalEdgeStyle;" edge="1" parent="1" source="44tpTN38QBaPn0KXmmkY-13" target="44tpTN38QBaPn0KXmmkY-15">
          <mxGeometry relative="1" as="geometry" />
        </mxCell>
        <mxCell id="44tpTN38QBaPn0KXmmkY-13" value="是否需要提交到远程dev分支？" style="rhombus;whiteSpace=wrap;html=1;align=center;" vertex="1" parent="1">
          <mxGeometry x="240.5" y="470" width="201" height="80" as="geometry" />
        </mxCell>
        <mxCell id="44tpTN38QBaPn0KXmmkY-14" style="edgeStyle=orthogonalEdgeStyle;sketch=0;orthogonalLoop=1;jettySize=auto;html=1;exitX=0.5;exitY=1;exitDx=0;exitDy=0;shadow=0;endArrow=classic;endFill=1;strokeColor=#000000;strokeWidth=1;" edge="1" parent="1" source="44tpTN38QBaPn0KXmmkY-15" target="44tpTN38QBaPn0KXmmkY-18">
          <mxGeometry relative="1" as="geometry" />
        </mxCell>
        <mxCell id="44tpTN38QBaPn0KXmmkY-15" value="本地新建、切换到dev分支" style="whiteSpace=wrap;html=1;" vertex="1" parent="1">
          <mxGeometry x="381" y="602" width="150" height="45" as="geometry" />
        </mxCell>
        <mxCell id="44tpTN38QBaPn0KXmmkY-16" value="git branch dev&lt;br&gt;git switch dev" style="text;html=1;strokeColor=#d79b00;fillColor=#ffe6cc;align=center;verticalAlign=middle;whiteSpace=wrap;" vertex="1" parent="1">
          <mxGeometry x="564" y="605" width="109" height="40" as="geometry" />
        </mxCell>
        <mxCell id="44tpTN38QBaPn0KXmmkY-17" style="edgeStyle=orthogonalEdgeStyle;sketch=0;orthogonalLoop=1;jettySize=auto;html=1;exitX=0.5;exitY=1;exitDx=0;exitDy=0;entryX=0.5;entryY=0;entryDx=0;entryDy=0;shadow=0;dashed=1;endArrow=none;endFill=0;strokeColor=#000000;strokeWidth=1;" edge="1" parent="1" source="44tpTN38QBaPn0KXmmkY-18" target="44tpTN38QBaPn0KXmmkY-20">
          <mxGeometry relative="1" as="geometry" />
        </mxCell>
        <mxCell id="44tpTN38QBaPn0KXmmkY-18" value="设置dev分支远程上游分支并推送" style="whiteSpace=wrap;html=1;align=center;" vertex="1" parent="1">
          <mxGeometry x="381" y="688" width="150" height="40" as="geometry" />
        </mxCell>
        <mxCell id="44tpTN38QBaPn0KXmmkY-19" value="git push&amp;nbsp; --set-upstream origin dev" style="text;html=1;strokeColor=#d79b00;fillColor=#ffe6cc;align=center;verticalAlign=middle;whiteSpace=wrap;" vertex="1" parent="1">
          <mxGeometry x="564" y="698" width="219" height="20" as="geometry" />
        </mxCell>
        <mxCell id="44tpTN38QBaPn0KXmmkY-20" value="&lt;span&gt;之后可直接使用git push推送&lt;/span&gt;" style="whiteSpace=wrap;html=1;align=center;dashed=1;fillColor=#f5f5f5;strokeColor=#666666;fontColor=#333333;" vertex="1" parent="1">
          <mxGeometry x="332" y="758" width="246" height="48" as="geometry" />
        </mxCell>
        <mxCell id="44tpTN38QBaPn0KXmmkY-21" style="edgeStyle=orthogonalEdgeStyle;sketch=0;orthogonalLoop=1;jettySize=auto;html=1;exitX=0;exitY=0.5;exitDx=0;exitDy=0;entryX=1;entryY=0.5;entryDx=0;entryDy=0;shadow=0;dashed=1;endArrow=none;endFill=0;strokeColor=#000000;strokeWidth=1;" edge="1" parent="1" source="44tpTN38QBaPn0KXmmkY-22" target="44tpTN38QBaPn0KXmmkY-2">
          <mxGeometry relative="1" as="geometry" />
        </mxCell>
        <mxCell id="44tpTN38QBaPn0KXmmkY-22" value="&lt;span style=&quot;color: rgb(221 , 0 , 85) ; font-family: &amp;#34;consolas&amp;#34; , monospace , serif ; background-color: rgb(250 , 250 , 250)&quot;&gt;.ssh/id_rsa.pub&lt;/span&gt;" style="whiteSpace=wrap;html=1;align=center;dashed=1;fillColor=#f5f5f5;strokeColor=#666666;fontColor=#333333;" vertex="1" parent="1">
          <mxGeometry x="516" y="214" width="114" height="34" as="geometry" />
        </mxCell>
        <mxCell id="44tpTN38QBaPn0KXmmkY-23" style="edgeStyle=orthogonalEdgeStyle;sketch=0;orthogonalLoop=1;jettySize=auto;html=1;exitX=0;exitY=0.5;exitDx=0;exitDy=0;shadow=0;endArrow=none;endFill=0;strokeColor=#000000;strokeWidth=1;dashed=1;" edge="1" parent="1" source="44tpTN38QBaPn0KXmmkY-24">
          <mxGeometry relative="1" as="geometry">
            <mxPoint x="341" y="286" as="targetPoint" />
          </mxGeometry>
        </mxCell>
        <mxCell id="44tpTN38QBaPn0KXmmkY-24" value="&lt;span style=&quot;color: rgb(0 , 0 , 0)&quot;&gt;复制准备clone的仓库ssh地址&lt;/span&gt;" style="whiteSpace=wrap;html=1;align=center;dashed=1;fillColor=#f5f5f5;strokeColor=#666666;fontColor=#333333;" vertex="1" parent="1">
          <mxGeometry x="516" y="269" width="114" height="34" as="geometry" />
        </mxCell>
        <mxCell id="44tpTN38QBaPn0KXmmkY-25" value="&lt;span style=&quot;font-size: 27px&quot;&gt;&lt;font color=&quot;#333333&quot;&gt;git push&lt;/font&gt;&lt;/span&gt;" style="whiteSpace=wrap;html=1;strokeWidth=2;gradientColor=#ffffff;" vertex="1" parent="1">
          <mxGeometry x="40" y="40" width="762" height="60" as="geometry" />
        </mxCell>
        <mxCell id="44tpTN38QBaPn0KXmmkY-26" style="edgeStyle=orthogonalEdgeStyle;orthogonalLoop=1;jettySize=auto;html=1;dashed=1;startArrow=none;startFill=0;endArrow=none;endFill=0;" edge="1" parent="1" source="44tpTN38QBaPn0KXmmkY-27">
          <mxGeometry relative="1" as="geometry">
            <mxPoint x="342" y="370" as="targetPoint" />
          </mxGeometry>
        </mxCell>
        <mxCell id="44tpTN38QBaPn0KXmmkY-27" value="&lt;font color=&quot;#000000&quot;&gt;修改clone到本地的文件&lt;/font&gt;" style="whiteSpace=wrap;html=1;align=center;dashed=1;fillColor=#f5f5f5;strokeColor=#666666;fontColor=#333333;" vertex="1" parent="1">
          <mxGeometry x="431" y="353" width="174" height="34" as="geometry" />
        </mxCell>
        <mxCell id="44tpTN38QBaPn0KXmmkY-28" value="是" style="text;html=1;strokeColor=none;fillColor=none;align=center;verticalAlign=middle;whiteSpace=wrap;" vertex="1" parent="1">
          <mxGeometry x="381" y="550" width="40" height="20" as="geometry" />
        </mxCell>
        <mxCell id="44tpTN38QBaPn0KXmmkY-29" value="否" style="text;html=1;strokeColor=none;fillColor=none;align=center;verticalAlign=middle;whiteSpace=wrap;" vertex="1" parent="1">
          <mxGeometry x="272" y="550" width="40" height="20" as="geometry" />
        </mxCell>
      </root>
    </mxGraphModel>
  </diagram>
</mxfile>
